<svg width="25" height="25" viewBox="0 0 25 25" fill="none" xmlns="http://www.w3.org/2000/svg">
<path d="M21.6815 10.7H12.2815V14.4H17.7815C17.6815 15.3 17.0815 16.7 15.7815 17.6C14.9815 18.2 13.7815 18.6 12.2815 18.6C9.68149 18.6 7.38149 16.9 6.58149 14.4C6.38149 13.8 6.28149 13.1 6.28149 12.4C6.28149 11.7 6.38149 11 6.58149 10.4C6.68149 10.2 6.68149 10 6.78149 9.9C7.68149 7.8 9.78149 6.3 12.2815 6.3C14.1815 6.3 15.3815 7.1 16.1815 7.8L18.9815 5C17.2815 3.5 14.9815 2.5 12.2815 2.5C8.38149 2.5 4.98149 4.7 3.38149 8C2.68149 9.4 2.28149 10.9 2.28149 12.5C2.28149 14.1 2.68149 15.6 3.38149 17C4.98149 20.3 8.38149 22.5 12.2815 22.5C14.9815 22.5 17.2815 21.6 18.8815 20.1C20.7815 18.4 21.8815 15.8 21.8815 12.7C21.8815 11.9 21.7815 11.3 21.6815 10.7Z" stroke="#3B3B3B" stroke-width="1.5" stroke-miterlimit="10" stroke-linecap="round" stroke-linejoin="round"/>
</svg>
