<svg width="25" height="25" viewBox="0 0 25 25" fill="none" xmlns="http://www.w3.org/2000/svg">
<path d="M6.98154 21.1C8.48154 22 10.2815 22.5 12.0815 22.5C17.5815 22.5 22.0815 18 22.0815 12.5C22.0815 7 17.5815 2.5 12.0815 2.5C6.58154 2.5 2.08154 7 2.08154 12.5C2.08154 14.3 2.58154 16 3.38154 17.5L2.52199 20.806C2.32726 21.5549 3.02047 22.2317 3.76453 22.0191L6.98154 21.1Z" stroke="#3B3B3B" stroke-width="1.5" stroke-miterlimit="10" stroke-linecap="round" stroke-linejoin="round"/>
<path d="M16.5815 15.3485C16.5815 15.5105 16.5455 15.677 16.4689 15.839C16.3923 16.001 16.2931 16.154 16.1624 16.298C15.9416 16.541 15.6982 16.7165 15.4233 16.829C15.1529 16.9415 14.86 17 14.5445 17C14.0848 17 13.5936 16.892 13.0753 16.6715C12.557 16.451 12.0387 16.154 11.525 15.7805C11.0067 15.4025 10.5154 14.984 10.0467 14.5205C9.58254 14.0525 9.16342 13.562 8.78935 13.049C8.4198 12.536 8.12235 12.023 7.90603 11.5145C7.68971 11.0015 7.58154 10.511 7.58154 10.043C7.58154 9.737 7.63562 9.4445 7.74379 9.1745C7.85195 8.9 8.02321 8.648 8.26206 8.423C8.5505 8.1395 8.86597 8 9.19947 8C9.32566 8 9.45185 8.027 9.56452 8.081C9.68169 8.135 9.78535 8.216 9.86647 8.333L10.912 9.8045C10.9932 9.917 11.0517 10.0205 11.0923 10.1195C11.1329 10.214 11.1554 10.3085 11.1554 10.394C11.1554 10.502 11.1239 10.61 11.0608 10.7135C11.0022 10.817 10.9165 10.925 10.8084 11.033L10.4659 11.3885C10.4163 11.438 10.3938 11.4965 10.3938 11.5685C10.3938 11.6045 10.3983 11.636 10.4073 11.672C10.4208 11.708 10.4343 11.735 10.4433 11.762C10.5245 11.9105 10.6642 12.104 10.8625 12.338C11.0653 12.572 11.2816 12.8105 11.5159 13.049C11.7593 13.2875 11.9937 13.508 12.2325 13.7105C12.4669 13.9085 12.6607 14.0435 12.8139 14.1245C12.8364 14.1335 12.8635 14.147 12.895 14.1605C12.9311 14.174 12.9671 14.1785 13.0077 14.1785C13.0843 14.1785 13.1429 14.1515 13.1925 14.102L13.535 13.7645C13.6476 13.652 13.7558 13.5665 13.8595 13.5125C13.9631 13.4495 14.0668 13.418 14.1794 13.418C14.2651 13.418 14.3552 13.436 14.4544 13.4765C14.5535 13.517 14.6572 13.5755 14.7698 13.652L16.2616 14.7095C16.3787 14.7905 16.4599 14.885 16.5094 14.9975C16.5545 15.11 16.5815 15.2225 16.5815 15.3485Z" stroke="#3B3B3B" stroke-width="1.5" stroke-miterlimit="10"/>
</svg>
