<svg width="25" height="25" viewBox="0 0 25 25" fill="none" xmlns="http://www.w3.org/2000/svg">
<path d="M14.0815 9.8V12.7H16.6815C16.8815 12.7 16.9815 12.9 16.9815 13.1L16.5815 15C16.5815 15.1 16.3815 15.2 16.2815 15.2H14.0815V22.5H11.0815V15.3H9.38154C9.18154 15.3 9.08154 15.2 9.08154 15V13.1C9.08154 12.9 9.18154 12.8 9.38154 12.8H11.0815V9.5C11.0815 7.8 12.3815 6.5 14.0815 6.5H16.7815C16.9815 6.5 17.0815 6.6 17.0815 6.8V9.2C17.0815 9.4 16.9815 9.5 16.7815 9.5H14.3815C14.1815 9.5 14.0815 9.6 14.0815 9.8Z" stroke="#3B3B3B" stroke-width="1.5" stroke-miterlimit="10" stroke-linecap="round"/>
<path d="M15.0815 22.5H9.08154C4.08154 22.5 2.08154 20.5 2.08154 15.5V9.5C2.08154 4.5 4.08154 2.5 9.08154 2.5H15.0815C20.0815 2.5 22.0815 4.5 22.0815 9.5V15.5C22.0815 20.5 20.0815 22.5 15.0815 22.5Z" stroke="#3B3B3B" stroke-width="1.5" stroke-linecap="round" stroke-linejoin="round"/>
</svg>
